<svg xmlns="http://www.w3.org/2000/svg" xmlns:xlink="http://www.w3.org/1999/xlink" width="500" zoomAndPan="magnify" viewBox="0 0 375 374.999991" height="500" preserveAspectRatio="xMidYMid meet" version="1.0"><path fill="#222831" d="M 133.542969 273.386719 C 126.75 266.375 123.445312 254.039062 123.445312 235.679688 L 123.445312 9.328125 L 39.945312 9.328125 L 39.945312 252.015625 C 39.945312 270.054688 42.382812 286.269531 47.1875 300.207031 C 51.890625 313.855469 59.023438 325.738281 68.386719 335.519531 C 77.707031 345.265625 89.050781 352.683594 102.097656 357.570312 C 115.402344 362.554688 130.917969 365.078125 148.203125 365.078125 L 226.933594 365.078125 L 226.933594 283.929688 L 169.949219 283.929688 C 152.320312 283.929688 140.410156 280.480469 133.539062 273.382812 Z M 133.542969 273.386719 " fill-opacity="1" fill-rule="nonzero"/><path fill="#ffa372" d="M 221.9375 179.148438 L 213.117188 179.148438 L 213.117188 179.109375 L 158.269531 179.109375 C 150.675781 179.109375 144.519531 185.265625 144.519531 192.859375 L 144.519531 248.773438 L 236.675781 248.773438 L 236.675781 193.710938 C 236.84375 189.984375 234.375 179.128906 221.941406 179.148438 Z M 221.9375 179.148438 " fill-opacity="1" fill-rule="nonzero"/><path fill="#222831" d="M 252.140625 206.945312 L 252.140625 365.671875 L 335.050781 365.671875 L 335.050781 190.617188 C 335.050781 172.574219 332.632812 156.359375 327.863281 142.421875 C 323.191406 128.765625 316.105469 116.886719 306.8125 107.105469 C 297.554688 97.359375 286.292969 89.941406 273.335938 85.054688 C 260.125 80.070312 244.722656 77.542969 227.554688 77.542969 L 148.644531 77.542969 L 148.644531 158.6875 L 205.632812 158.6875 C 223.261719 158.6875 235.171875 162.140625 242.042969 169.238281 C 248.835938 176.25 252.140625 188.582031 252.140625 206.945312 Z M 252.140625 206.945312 " fill-opacity="1" fill-rule="nonzero"/></svg>