<svg xmlns="http://www.w3.org/2000/svg" xmlns:xlink="http://www.w3.org/1999/xlink" width="475" zoomAndPan="magnify" viewBox="0 0 356.25 187.499995" height="250" preserveAspectRatio="xMidYMid meet" version="1.0"><path fill="#222831" d="M 161.023438 136.703125 C 157.617188 133.191406 155.964844 127.003906 155.964844 117.800781 L 155.964844 4.328125 L 114.101562 4.328125 L 114.101562 125.992188 C 114.101562 135.035156 115.324219 143.164062 117.734375 150.148438 C 120.09375 156.996094 123.667969 162.949219 128.363281 167.855469 C 133.039062 172.742188 138.722656 176.460938 145.261719 178.910156 C 151.933594 181.40625 159.707031 182.671875 168.378906 182.671875 L 207.847656 182.671875 L 207.847656 141.992188 L 179.28125 141.992188 C 170.441406 141.992188 164.472656 140.261719 161.027344 136.703125 Z M 161.023438 136.703125 " fill-opacity="1" fill-rule="nonzero"/><path fill="#222831" d="M 102.996094 4.804688 L 87.738281 4.734375 C 76.070312 4.734375 58.804688 8.253906 48.375 14.972656 C 43.050781 18.402344 38.347656 22.382812 34.398438 26.792969 C 30.460938 31.191406 27.152344 36.152344 24.5625 41.546875 L 24.5625 41.554688 C 24.5625 41.554688 24.550781 41.5625 24.550781 41.5625 C 20.464844 49.992188 18.394531 60.40625 18.394531 72.523438 L 18.394531 182.273438 L 59.960938 182.273438 L 59.960938 130.6875 L 90.027344 130.6875 L 90.027344 86.761719 L 59.960938 86.761719 L 59.960938 77.734375 C 59.960938 68.878906 62.035156 61.835938 66.136719 56.804688 C 70.449219 51.511719 76.550781 48.828125 84.269531 48.828125 C 84.429688 48.828125 96.15625 48.851562 103 48.902344 L 103 4.804688 Z M 102.996094 4.804688 " fill-opacity="1" fill-rule="nonzero"/><path fill="#ffa372" d="M 205.339844 89.460938 L 200.917969 89.460938 L 200.917969 89.441406 L 173.417969 89.441406 C 169.613281 89.441406 166.527344 92.527344 166.527344 96.335938 L 166.527344 124.367188 L 212.726562 124.367188 L 212.726562 96.761719 C 212.808594 94.894531 211.570312 89.453125 205.335938 89.460938 Z M 205.339844 89.460938 " fill-opacity="1" fill-rule="nonzero"/><path fill="#222831" d="M 220.480469 103.394531 L 220.480469 182.96875 L 262.046875 182.96875 L 262.046875 95.210938 C 262.046875 86.167969 260.832031 78.035156 258.445312 71.046875 C 256.101562 64.203125 252.550781 58.246094 247.890625 53.34375 C 243.25 48.457031 237.601562 44.738281 231.105469 42.289062 C 224.484375 39.789062 216.761719 38.523438 208.15625 38.523438 L 168.597656 38.523438 L 168.597656 79.203125 L 197.164062 79.203125 C 206.003906 79.203125 211.976562 80.933594 215.421875 84.492188 C 218.824219 88.007812 220.480469 94.191406 220.480469 103.394531 Z M 220.480469 103.394531 " fill-opacity="1" fill-rule="nonzero"/><path fill="#222831" d="M 305.976562 175.628906 C 315.195312 180.636719 325.144531 183.175781 335.550781 183.175781 C 335.96875 183.175781 336.476562 183.167969 337.078125 183.160156 L 337.078125 137.785156 C 329.207031 137.152344 323.457031 134.628906 319.953125 130.265625 C 315.992188 125.332031 314.0625 117.113281 314.0625 105.144531 L 314.0625 100.808594 L 336.222656 100.808594 L 336.222656 55.707031 L 314.0625 55.707031 L 314.0625 3.824219 L 273.148438 3.824219 L 273.148438 111.066406 C 273.148438 129.453125 276.71875 144.320312 283.765625 155.261719 C 289.300781 163.773438 296.777344 170.632812 305.976562 175.632812 Z M 305.976562 175.628906 " fill-opacity="1" fill-rule="nonzero"/></svg>